<svg width="173" height="59" viewBox="0 0 173 59" fill="none" xmlns="http://www.w3.org/2000/svg">
<path d="M27.216 19.304V25.88H18.288V53H10.08V25.88H1.152V19.304H27.216ZM47.2714 53.336C44.1034 53.336 41.1914 52.6 38.5354 51.128C35.9114 49.656 33.8154 47.608 32.2474 44.984C30.7114 42.328 29.9434 39.352 29.9434 36.056C29.9434 32.76 30.7114 29.8 32.2474 27.176C33.8154 24.552 35.9114 22.504 38.5354 21.032C41.1914 19.56 44.1034 18.824 47.2714 18.824C50.4394 18.824 53.3354 19.56 55.9594 21.032C58.6154 22.504 60.6954 24.552 62.1994 27.176C63.7354 29.8 64.5034 32.76 64.5034 36.056C64.5034 39.352 63.7354 42.328 62.1994 44.984C60.6634 47.608 58.5834 49.656 55.9594 51.128C53.3354 52.6 50.4394 53.336 47.2714 53.336ZM47.2714 45.848C49.9594 45.848 52.1034 44.952 53.7034 43.16C55.3354 41.368 56.1514 39 56.1514 36.056C56.1514 33.08 55.3354 30.712 53.7034 28.952C52.1034 27.16 49.9594 26.264 47.2714 26.264C44.5514 26.264 42.3754 27.144 40.7434 28.904C39.1434 30.664 38.3434 33.048 38.3434 36.056C38.3434 39.032 39.1434 41.416 40.7434 43.208C42.3754 44.968 44.5514 45.848 47.2714 45.848ZM89.7098 32.744V39.56H68.5898V32.744H89.7098ZM109.538 19.304C113.09 19.304 116.194 20.008 118.85 21.416C121.506 22.824 123.554 24.808 124.994 27.368C126.466 29.896 127.202 32.824 127.202 36.152C127.202 39.448 126.466 42.376 124.994 44.936C123.554 47.496 121.49 49.48 118.802 50.888C116.146 52.296 113.058 53 109.538 53H96.9135V19.304H109.538ZM109.01 45.896C112.114 45.896 114.53 45.048 116.258 43.352C117.986 41.656 118.85 39.256 118.85 36.152C118.85 33.048 117.986 30.632 116.258 28.904C114.53 27.176 112.114 26.312 109.01 26.312H105.122V45.896H109.01ZM147.725 53.336C144.557 53.336 141.645 52.6 138.989 51.128C136.365 49.656 134.269 47.608 132.701 44.984C131.164 42.328 130.396 39.352 130.396 36.056C130.396 32.76 131.164 29.8 132.701 27.176C134.269 24.552 136.365 22.504 138.989 21.032C141.645 19.56 144.557 18.824 147.725 18.824C150.893 18.824 153.789 19.56 156.413 21.032C159.069 22.504 161.149 24.552 162.653 27.176C164.189 29.8 164.957 32.76 164.957 36.056C164.957 39.352 164.189 42.328 162.653 44.984C161.117 47.608 159.037 49.656 156.413 51.128C153.789 52.6 150.893 53.336 147.725 53.336ZM147.725 45.848C150.413 45.848 152.557 44.952 154.156 43.16C155.789 41.368 156.605 39 156.605 36.056C156.605 33.08 155.789 30.712 154.156 28.952C152.557 27.16 150.413 26.264 147.725 26.264C145.005 26.264 142.829 27.144 141.197 28.904C139.597 30.664 138.797 33.048 138.797 36.056C138.797 39.032 139.597 41.416 141.197 43.208C142.829 44.968 145.005 45.848 147.725 45.848Z" fill="#4200FF" fill-opacity="0.3"/>
<path d="M33.216 19.304V25.88H24.288V53H16.08V25.88H7.152V19.304H33.216ZM53.2714 53.336C50.1034 53.336 47.1914 52.6 44.5354 51.128C41.9114 49.656 39.8154 47.608 38.2474 44.984C36.7114 42.328 35.9434 39.352 35.9434 36.056C35.9434 32.76 36.7114 29.8 38.2474 27.176C39.8154 24.552 41.9114 22.504 44.5354 21.032C47.1914 19.56 50.1034 18.824 53.2714 18.824C56.4394 18.824 59.3354 19.56 61.9594 21.032C64.6154 22.504 66.6954 24.552 68.1994 27.176C69.7354 29.8 70.5034 32.76 70.5034 36.056C70.5034 39.352 69.7354 42.328 68.1994 44.984C66.6634 47.608 64.5834 49.656 61.9594 51.128C59.3354 52.6 56.4394 53.336 53.2714 53.336ZM53.2714 45.848C55.9594 45.848 58.1034 44.952 59.7034 43.16C61.3354 41.368 62.1514 39 62.1514 36.056C62.1514 33.08 61.3354 30.712 59.7034 28.952C58.1034 27.16 55.9594 26.264 53.2714 26.264C50.5514 26.264 48.3754 27.144 46.7434 28.904C45.1434 30.664 44.3434 33.048 44.3434 36.056C44.3434 39.032 45.1434 41.416 46.7434 43.208C48.3754 44.968 50.5514 45.848 53.2714 45.848ZM95.7098 32.744V39.56H74.5898V32.744H95.7098ZM115.538 19.304C119.09 19.304 122.194 20.008 124.85 21.416C127.506 22.824 129.554 24.808 130.994 27.368C132.466 29.896 133.202 32.824 133.202 36.152C133.202 39.448 132.466 42.376 130.994 44.936C129.554 47.496 127.49 49.48 124.802 50.888C122.146 52.296 119.058 53 115.538 53H102.914V19.304H115.538ZM115.01 45.896C118.114 45.896 120.53 45.048 122.258 43.352C123.986 41.656 124.85 39.256 124.85 36.152C124.85 33.048 123.986 30.632 122.258 28.904C120.53 27.176 118.114 26.312 115.01 26.312H111.122V45.896H115.01ZM153.725 53.336C150.557 53.336 147.645 52.6 144.989 51.128C142.365 49.656 140.269 47.608 138.701 44.984C137.164 42.328 136.396 39.352 136.396 36.056C136.396 32.76 137.164 29.8 138.701 27.176C140.269 24.552 142.365 22.504 144.989 21.032C147.645 19.56 150.557 18.824 153.725 18.824C156.893 18.824 159.789 19.56 162.413 21.032C165.069 22.504 167.149 24.552 168.653 27.176C170.189 29.8 170.957 32.76 170.957 36.056C170.957 39.352 170.189 42.328 168.653 44.984C167.117 47.608 165.037 49.656 162.413 51.128C159.789 52.6 156.893 53.336 153.725 53.336ZM153.725 45.848C156.413 45.848 158.557 44.952 160.156 43.16C161.789 41.368 162.605 39 162.605 36.056C162.605 33.08 161.789 30.712 160.156 28.952C158.557 27.16 156.413 26.264 153.725 26.264C151.005 26.264 148.829 27.144 147.197 28.904C145.597 30.664 144.797 33.048 144.797 36.056C144.797 39.032 145.597 41.416 147.197 43.208C148.829 44.968 151.005 45.848 153.725 45.848Z" fill="#00A3FF"/>
</svg>
